<svg width="119" height="96" viewBox="0 0 119 96" fill="none" xmlns="http://www.w3.org/2000/svg">
<path d="M15.1391 55.3688C14.8707 55.3135 14.5974 55.2857 14.3234 55.2857C13.368 55.2781 12.4125 55.2781 11.4571 55.2857L11.4458 64.1601C11.6237 63.8243 11.8276 63.5029 12.0557 63.199C12.4484 62.6974 12.883 62.2299 13.3547 61.8018C13.5536 61.6167 13.7525 61.4323 13.9514 61.2485C14.295 60.9275 14.6387 60.6084 14.9767 60.2837C15.3698 59.9127 15.7166 59.4955 16.0095 59.0413C16.2382 58.6994 16.3973 58.3159 16.4777 57.9125C16.558 57.5091 16.5581 57.0939 16.4778 56.6905C16.3399 55.9617 15.9132 55.5425 15.1391 55.3688Z" fill="#F5333F"/>
<path d="M14.1537 63.0987C13.9347 63.3026 13.7138 63.5084 13.4966 63.7161C12.9753 64.194 12.4952 64.7151 12.0616 65.2739C11.833 65.5832 11.6273 65.9088 11.4461 66.2482V71.2556C11.4461 74.4523 9.89779 75.9647 7.63009 75.9647C5.6022 75.9647 4.19362 74.9337 2.78316 73.1456L0 75.9987C1.5804 78.1644 3.98592 79.8826 7.69807 79.8826C12.4411 79.8826 15.7757 77.0655 15.7757 71.3594V61.7166C15.7115 61.7864 15.364 62.0036 15.2961 62.0696C14.9241 62.4322 14.5332 62.7399 14.1537 63.0987Z" fill="#F5333F"/>
<path d="M51.1299 61.0124C48.2089 61.0124 46.3188 62.523 44.9782 64.4111V54.4473H40.8242V79.5392H44.9782V76.7201C46.2489 78.4044 48.1409 79.9168 51.1299 79.9168C55.4613 79.9168 59.5851 76.5181 59.5851 70.4646C59.5851 64.4111 55.4273 61.0124 51.1299 61.0124ZM50.1669 76.3066C47.3497 76.3066 44.88 74.003 44.88 70.4533C44.88 66.9035 47.3554 64.6113 50.1669 64.6113C52.9784 64.6113 55.3575 66.8771 55.3575 70.4533C55.3575 74.0729 53.0199 76.3085 50.1669 76.3085V76.3066Z" fill="#F5333F"/>
<path d="M77.292 54.449H73.1343V79.539H77.292V54.449Z" fill="#F5333F"/>
<path d="M89.809 61.0125C84.6184 61.0125 80.9346 65.2759 80.9346 70.4986C80.9346 76.1367 84.9922 79.9508 90.2508 79.9508C93.5834 79.9508 95.955 78.6102 97.6732 76.5521L95.2337 74.3863C93.7911 75.7949 92.3467 76.5521 90.3244 76.5521C87.6432 76.5521 85.5814 74.9037 85.0999 71.9468H98.4379C98.47 71.5352 98.5059 71.1916 98.5059 70.8139C98.5059 65.5497 95.583 61.0125 89.809 61.0125ZM85.0659 69.1939C85.4435 66.3748 87.2316 64.4149 89.775 64.4149C92.5242 64.4149 94.1064 66.5127 94.3802 69.1939H85.0659Z" fill="#F5333F"/>
<path d="M119 70.8083C119 65.5497 116.077 61.0125 110.303 61.0125C105.113 61.0125 101.429 65.2741 101.429 70.5005C101.429 76.1348 105.486 79.9527 110.743 79.9527C114.078 79.9527 116.449 78.6121 118.167 76.554L115.728 74.3882C114.285 75.7968 112.841 76.554 110.819 76.554C108.137 76.554 106.075 74.9056 105.594 71.9487H118.93C118.964 71.522 119 71.1859 119 70.8083ZM105.56 69.192C105.938 66.3748 107.726 64.4149 110.269 64.4149C113.018 64.4149 114.601 66.5127 114.874 69.192H105.56Z" fill="#F5333F"/>
<path d="M67.7304 61.3901H63.5708V79.5373H67.7304V61.3901Z" fill="#F5333F"/>
<path d="M65.612 53.894C65.0738 53.894 64.5478 54.0536 64.1003 54.3526C63.6529 54.6516 63.3042 55.0765 63.0982 55.5737C62.8923 56.0708 62.8384 56.6179 62.9434 57.1457C63.0484 57.6735 63.3075 58.1583 63.688 58.5388C64.0686 58.9193 64.5534 59.1785 65.0812 59.2835C65.609 59.3884 66.156 59.3346 66.6532 59.1286C67.1504 58.9227 67.5753 58.574 67.8743 58.1265C68.1733 57.6791 68.3328 57.153 68.3328 56.6149C68.3331 56.2575 68.2629 55.9036 68.1262 55.5734C67.9896 55.2432 67.7892 54.9431 67.5365 54.6904C67.2837 54.4377 66.9837 54.2373 66.6535 54.1006C66.3233 53.964 65.9693 53.8938 65.612 53.894V53.894Z" fill="#F5333F"/>
<path d="M32.5537 72.026C32.5537 74.9356 31.0583 76.4311 28.5886 76.4311C26.1189 76.4311 24.6234 74.8828 24.6234 71.8994V61.3616L20.6035 61.4201V72.2997C20.6035 77.7018 23.6246 80.1545 28.5489 80.1545C33.4733 80.1545 36.6001 77.4261 36.6001 71.8674V61.3899H32.567L32.5537 72.026Z" fill="#F5333F"/>
<path d="M66.9814 21.0852C66.817 21.0896 66.6608 21.1584 66.5464 21.2766C66.4321 21.3949 66.3686 21.5532 66.3696 21.7177C66.374 21.8769 66.4397 22.0282 66.553 22.1401C66.6663 22.252 66.8184 22.3158 66.9776 22.3182C67.0591 22.3199 67.14 22.3054 67.2158 22.2755C67.2916 22.2455 67.3606 22.2007 67.4188 22.1437C67.477 22.0868 67.5233 22.0187 67.5548 21.9436C67.5864 21.8685 67.6026 21.7879 67.6026 21.7064C67.6016 21.542 67.5359 21.3845 67.4196 21.2682C67.3033 21.152 67.1459 21.0862 66.9814 21.0852V21.0852Z" fill="#F5333F"/>
<path d="M59.5002 0C54.7795 0 50.1648 1.39985 46.2397 4.02254C42.3145 6.64523 39.2553 10.373 37.4487 14.7343C35.6422 19.0957 35.1695 23.8948 36.0905 28.5248C37.0114 33.1548 39.2847 37.4078 42.6227 40.7458C45.9608 44.0839 50.2137 46.3571 54.8437 47.2781C59.4737 48.1991 64.2729 47.7264 68.6342 45.9198C72.9956 44.1133 76.7233 41.054 79.346 37.1289C81.9687 33.2038 83.3685 28.5891 83.3685 23.8684C83.368 17.5382 80.8532 11.4675 76.3771 6.99143C71.901 2.51536 65.8303 0.000500702 59.5002 0ZM69.9153 19.2027C70.1514 18.3946 70.5875 17.6922 71.0898 16.9369C71.5373 17.7639 71.9413 18.5494 72.0754 19.4349C72.1222 19.8215 72.0431 20.2129 71.85 20.5509C71.6568 20.889 71.3597 21.1558 71.0029 21.3118C70.9577 21.3238 70.9105 21.3266 70.8641 21.3202C70.8177 21.3137 70.7731 21.298 70.7329 21.274C70.3835 21.0711 70.1126 20.7563 69.9643 20.3804C69.8159 20.0045 69.7987 19.5896 69.9153 19.2027V19.2027ZM54.8421 13.829C55.0231 13.7707 55.2168 13.7642 55.4013 13.8103C55.5859 13.8563 55.7538 13.953 55.8862 14.0895C56.1535 14.4042 56.3966 14.7388 56.6132 15.0903C56.6923 15.2306 56.7598 15.3771 56.8152 15.5283C57.8084 12.8849 59.2529 10.7909 62.3098 10.3321C62.2937 10.3815 62.2721 10.429 62.2456 10.4737C60.7766 12.1315 60.2271 14.1027 60.297 16.2723C60.3467 18.083 60.7089 19.8716 61.3676 21.5591C61.3873 21.591 61.3998 21.6267 61.4046 21.6639C61.4093 21.701 61.4059 21.7388 61.3949 21.7745C61.3838 21.8103 61.3651 21.8433 61.3403 21.8713C61.3154 21.8993 61.2848 21.9216 61.2505 21.9368C60.5123 22.4541 59.74 22.4711 58.9451 21.9651C58.2508 21.4996 57.6553 20.9016 57.1929 20.2053C55.9046 18.4068 55.0249 16.3485 54.6155 14.1745C54.574 13.9536 54.6552 13.8743 54.8421 13.829V13.829ZM71.9092 27.4389C71.4672 27.5273 71.0082 27.4635 70.6071 27.2577C70.2059 27.052 69.8863 26.7166 69.7001 26.306C69.6831 26.2571 69.6763 26.2052 69.6802 26.1535C69.6841 26.1019 69.6986 26.0516 69.7228 26.0058C69.9464 25.6138 70.2974 25.3102 70.7175 25.1453C71.1376 24.9804 71.6014 24.9643 72.032 25.0994C72.9156 25.36 73.6879 25.8415 74.4998 26.3834C73.6294 26.846 72.8156 27.2576 71.9092 27.4389V27.4389ZM73.231 24.6312C72.8231 24.6502 72.419 24.5451 72.0721 24.3296C71.7252 24.1142 71.4518 23.7987 71.288 23.4246C71.2773 23.3789 71.2758 23.3314 71.2836 23.2851C71.2914 23.2387 71.3083 23.1944 71.3334 23.1546C71.5668 22.7628 71.9261 22.4616 72.3526 22.3001C72.7792 22.1386 73.2478 22.1264 73.6822 22.2653C74.3582 22.4636 75.6912 23.183 76.0632 23.5625C75.1588 24.0364 74.2657 24.5217 73.2329 24.6312H73.231ZM75.172 21.3571C74.8901 21.5048 74.5732 21.5728 74.2555 21.5539C73.9377 21.5349 73.6312 21.4297 73.3688 21.2495C73.0761 21.0606 72.9119 21.1758 72.7023 21.3344C71.6291 22.1614 70.7197 23.1815 70.0211 24.3423C68.8633 26.1892 68.0854 28.2484 67.7326 30.3995C67.7326 30.4675 67.7043 30.5336 67.6835 30.6261L67.051 30.5374C67.4891 27.9886 68.4917 25.57 69.9852 23.4586C68.9656 23.74 68.1839 24.263 67.6684 25.1334C67.4562 25.4896 67.2875 25.8699 67.1662 26.2663C66.7564 27.6334 66.1919 28.9098 65.2365 29.9955C64.0356 31.355 62.476 32.0725 60.7483 32.4652C59.8986 32.654 59.0489 32.8258 58.1804 32.9693C56.9759 33.1897 55.8283 33.6508 54.8062 34.325C53.73 34.9972 52.6537 35.6713 51.551 36.2982C50.5528 36.8712 49.4485 37.2354 48.3052 37.3688C46.5757 37.5576 45.152 37.0006 43.9794 35.7431C42.8937 34.5818 42.1574 33.211 41.6079 31.7326C41.5926 31.6804 41.58 31.6275 41.5701 31.574H42.0309C44.646 31.6136 47.2516 31.5136 49.8252 31.0075C50.8958 30.796 51.9437 30.5128 52.8992 29.969C53.1239 29.8406 53.3297 29.6801 53.5959 29.5008C53.1087 29.4271 52.6934 29.3856 52.2912 29.2968C50.992 29.0308 49.7672 28.4822 48.7036 27.69C48.4767 27.5178 48.2674 27.3237 48.0787 27.1103C47.7803 26.7799 47.5764 26.4212 47.8238 25.9548C47.9293 25.7387 48.0988 25.5602 48.3093 25.4437C48.5197 25.3272 48.7609 25.2782 49.0001 25.3034L49.3645 25.3411C49.2376 25.2661 49.1152 25.1835 48.9982 25.0938C48.49 24.6791 48.0041 24.2379 47.5424 23.7721C47.335 23.5455 47.1816 23.2749 47.0936 22.9806C47.0057 22.6863 46.9855 22.3759 47.0345 22.0727C47.1346 21.3401 47.601 20.953 48.3298 21.0021C48.5601 21.0172 48.7867 21.0739 49.0171 21.1116C48.7381 20.7436 48.4857 20.3562 48.2618 19.9523C48.0206 19.4979 47.8542 19.0076 47.769 18.5003C47.6425 17.4354 48.5243 16.7821 49.5174 17.1691C49.9237 17.3566 50.3173 17.5704 50.6957 17.8092C50.6466 17.4712 50.5843 17.1257 50.5503 16.7783C50.4106 15.3282 50.5352 13.9177 51.2074 12.5941C51.6303 11.7595 52.4026 10.925 53.0672 10.5945C53.0483 10.7947 53.0257 10.9722 53.0181 11.161C52.9539 12.6904 53.2485 14.182 53.6337 15.6397C54.2048 17.8724 55.2701 19.9482 56.751 21.714C57.2915 22.3921 57.9766 22.9411 58.7563 23.3208C59.2173 23.5529 59.7305 23.6617 60.2461 23.6365C60.7616 23.6114 61.2618 23.4532 61.698 23.1773C62.459 22.7409 63.1091 22.1348 63.5975 21.4062C64.0385 20.6887 64.7324 20.1625 65.5423 19.9315C66.1696 19.752 66.8401 19.799 67.4363 20.0641C68.0324 20.3292 68.5163 20.7956 68.8032 21.3816C69.0676 21.8877 69.3413 22.3861 69.7945 22.7524C69.9418 22.8714 70.1061 22.9696 70.1929 23.03C70.9161 22.3616 71.5769 21.7083 72.2926 21.1079C72.6702 20.7944 73.0025 20.5169 73.1857 20.0259C73.4066 19.4293 73.922 19.0951 74.5584 18.9931C75.5024 18.842 76.4314 18.9497 77.4284 19.1083C76.7449 19.9901 76.1293 20.8548 75.172 21.3571Z" fill="#F5333F"/>
<path d="M29.6668 93.8421L29.6574 89.6881L27.6201 93.1113H26.8988L24.8709 89.7768V93.8439H23.3604V86.9163H24.6821L27.2745 91.2194L29.8273 86.9163H31.1491L31.1698 93.8421H29.6668Z" fill="#F5333F"/>
<path d="M38.4957 91.1799C38.4957 92.8528 37.3382 93.9196 35.8522 93.9196C35.1385 93.9196 34.5664 93.693 34.1793 93.2285V93.8422H32.7065V86.501H34.2492V89.0821C34.4541 88.8654 34.7034 88.6957 34.9802 88.5845C35.2569 88.4734 35.5544 88.4235 35.8522 88.4382C37.3382 88.4401 38.4957 89.5088 38.4957 91.1799ZM36.9323 91.1799C36.9323 90.2603 36.3488 89.7071 35.5766 89.7071C34.8043 89.7071 34.2227 90.2603 34.2227 91.1799C34.2227 92.0994 34.8062 92.6545 35.5766 92.6545C36.3469 92.6545 36.9323 92.1032 36.9323 91.1799Z" fill="#F5333F"/>
<path d="M44.7061 91.6161H40.6805C40.8297 92.2788 41.3942 92.6848 42.2042 92.6848C42.4502 92.695 42.6956 92.6545 42.9253 92.5658C43.1549 92.4771 43.3639 92.3422 43.5392 92.1693L44.3605 93.0605C43.8658 93.627 43.1238 93.9197 42.1646 93.9197C40.3255 93.9197 39.1284 92.7641 39.1284 91.1799C39.1284 89.5957 40.3444 88.4402 41.9607 88.4402C43.5241 88.4402 44.7306 89.4881 44.7306 91.2007C44.7363 91.3196 44.7174 91.4877 44.7061 91.6161ZM40.6616 90.7154H43.2824C43.2405 90.3976 43.0845 90.1057 42.8434 89.8943C42.6023 89.683 42.2926 89.5664 41.972 89.5664C41.6514 89.5664 41.3417 89.683 41.1006 89.8943C40.8595 90.1057 40.7035 90.3976 40.6616 90.7154Z" fill="#F5333F"/>
<path d="M45.7651 86.501H47.3078V93.8422H45.7651V86.501Z" fill="#F5333F"/>
<path d="M53.9257 91.6161H49.9002C50.0474 92.2788 50.612 92.6848 51.4239 92.6848C51.6698 92.6946 51.9152 92.654 52.1448 92.5653C52.3744 92.4767 52.5834 92.3419 52.7588 92.1693L53.5802 93.0605C53.0855 93.627 52.3434 93.9197 51.3843 93.9197C49.5433 93.9197 48.3462 92.7641 48.3462 91.1799C48.3462 89.5957 49.5641 88.4402 51.1784 88.4402C52.7419 88.4402 53.9484 89.4881 53.9484 91.2007C53.9559 91.3196 53.9352 91.4877 53.9257 91.6161ZM49.8794 90.7154H52.5021C52.4618 90.3961 52.3063 90.1024 52.0649 89.8895C51.8235 89.6766 51.5126 89.5591 51.1907 89.5591C50.8688 89.5591 50.558 89.6766 50.3165 89.8895C50.0751 90.1024 49.9197 90.3961 49.8794 90.7154V90.7154Z" fill="#F5333F"/>
<path d="M63.8971 89.4294C63.8971 90.972 62.7397 91.9312 60.8893 91.9312H59.4996V93.8421H57.8984V86.9163H60.895C62.7397 86.9163 63.8971 87.8773 63.8971 89.4294ZM62.2733 89.4294C62.2733 88.6741 61.7805 88.2229 60.8006 88.2229H59.4996V90.6265H60.8062C61.7805 90.6265 62.2733 90.1809 62.2733 89.4294V89.4294Z" fill="#F5333F"/>
<path d="M69.5844 90.8041V93.8422H68.14V93.1794C67.853 93.6628 67.2997 93.9196 66.518 93.9196C65.2718 93.9196 64.5298 93.2285 64.5298 92.309C64.5298 91.3894 65.1925 90.7154 66.8145 90.7154H68.0418C68.0418 90.0526 67.6453 89.6674 66.8145 89.6674C66.2634 89.6622 65.7254 89.8358 65.2813 90.1621L64.728 89.0821C65.4119 88.6446 66.2105 88.4205 67.0222 88.4382C68.6441 88.4401 69.5844 89.1916 69.5844 90.8041ZM68.0418 92.1598V91.616H66.9825C66.2612 91.616 66.0384 91.8822 66.0384 92.2391C66.0384 92.596 66.3651 92.8811 66.9089 92.8811C67.4527 92.8811 67.8624 92.6451 68.0418 92.1598Z" fill="#F5333F"/>
<path d="M79.9695 90.7948V93.8424H78.4269V91.0328C78.4269 90.1717 78.0492 89.7752 77.4186 89.7752C76.7256 89.7752 76.2404 90.2208 76.2404 91.1706V93.8424H74.6977V91.0328C74.6977 90.1717 74.3314 89.7752 73.6894 89.7752C73.0059 89.7752 72.5225 90.2208 72.5225 91.1706V93.8424H70.978V88.5158H72.4527V89.1295C72.6644 88.8998 72.9235 88.7189 73.212 88.5993C73.5005 88.4796 73.8116 88.4241 74.1237 88.4365C74.8658 88.4365 75.5002 88.7235 75.8759 89.307C76.1081 89.0251 76.4016 88.8001 76.7342 88.6492C77.0667 88.4983 77.4293 88.4256 77.7943 88.4365C79.0613 88.4403 79.9695 89.1729 79.9695 90.7948Z" fill="#F5333F"/>
<path d="M81.0249 91.1799C81.0249 89.5788 82.2617 88.4402 83.9516 88.4402C85.6415 88.4402 86.8707 89.5731 86.8707 91.1799C86.8707 92.7868 85.6434 93.9197 83.9516 93.9197C82.2598 93.9197 81.0249 92.783 81.0249 91.1799ZM85.3073 91.1799C85.3073 90.2604 84.7238 89.7072 83.9516 89.7072C83.1793 89.7072 82.5864 90.2604 82.5864 91.1799C82.5864 92.0995 83.1812 92.6546 83.9516 92.6546C84.7219 92.6546 85.3016 92.1032 85.3016 91.1799H85.3073Z" fill="#F5333F"/>
<path d="M86.2607 95.5433L86.6761 94.4255C86.8698 94.5531 87.0976 94.6189 87.3295 94.6143C87.7071 94.6143 87.962 94.367 87.962 93.8439V88.5155H89.5065V93.827C89.5065 95.0543 88.7833 95.836 87.4975 95.836C87.0658 95.8584 86.6366 95.7568 86.2607 95.5433V95.5433ZM87.7713 86.9163C87.7713 86.4329 88.1489 86.0571 88.7305 86.0571C89.312 86.0571 89.6897 86.4121 89.6897 86.8879C89.6897 87.4015 89.312 87.7773 88.7305 87.7773C88.1489 87.7773 87.7751 87.4015 87.7751 86.9163H87.7713Z" fill="#F5333F"/>
<path d="M95.6396 90.8041V93.8422H94.1951V93.1794C93.9081 93.6628 93.353 93.9196 92.5732 93.9196C91.3251 93.9196 90.585 93.2285 90.585 92.309C90.585 91.3894 91.2477 90.7154 92.8696 90.7154H94.0951C94.0951 90.0526 93.7004 89.6674 92.8696 89.6674C92.3185 89.6622 91.7806 89.8358 91.3364 90.1621L90.7813 89.0821C91.3648 88.6667 92.2258 88.4382 93.0773 88.4382C94.6993 88.4401 95.6396 89.1916 95.6396 90.8041ZM94.0951 92.1598V91.616H93.0377C92.3145 91.616 92.0936 91.8822 92.0936 92.2391C92.0936 92.596 92.4203 92.8811 92.9641 92.8811C93.472 92.8811 93.9176 92.6451 94.0951 92.1598Z" fill="#F5333F"/>
</svg>
